Brian_90_01									
version=1									
nRows=103									
nColumns=10									
inDegrees=yes									
endheader									
time	ground_force_vx	ground_force_vy	ground_force_vz	ground_force_px	ground_force_py	ground_force_pz	ground_torque_x	ground_torque_y	ground_torque_z
6.51	-2.010728	195.456985	-11.407568	-0.167383	0	-0.59432	0.000006	-2.56506	-0.000001
6.511	-2.092352	196.768845	-11.383058	-0.167242	0	-0.593835	0.000005	-2.610133	-0.000002
6.512	-1.920654	195.974533	-11.316078	-0.166609	0	-0.594552	0.000003	-2.607079	-0.000003
6.513	-2.388736	196.061951	-11.428092	-0.166822	0	-0.594074	0.000005	-2.568484	-0.000002
6.514	-2.158851	195.773468	-11.74484	-0.167059	0	-0.593362	0.000013	-2.533899	-0.000002
6.515	-1.627728	194.648666	-11.611446	-0.166075	0	-0.594173	0.000008	-2.533861	-0.000001
6.516	-1.959221	196.061707	-11.337487	-0.167126	0	-0.594438	0.000006	-2.495713	0
6.517	-1.662837	196.328125	-11.138124	-0.166991	0	-0.59342	0.000016	-2.54022	-0.000002
6.518	-1.420155	196.142609	-11.118979	-0.167258	0	-0.593899	0.000001	-2.505744	-0.000003
6.519	-1.509028	195.611389	-11.165284	-0.166996	0	-0.594003	0.000012	-2.543492	-0.000002
6.52	-1.509697	195.892593	-11.503447	-0.16682	0	-0.594242	0.00001	-2.581449	0.000001
6.521	-1.377783	196.410324	-11.435672	-0.166857	0	-0.593579	0.000005	-2.521639	-0.000002
6.522	-1.55517	195.611389	-11.348597	-0.167413	0	-0.593147	0.000004	-2.574486	-0.000002
6.523	-1.400947	195.526947	-11.665318	-0.16741	0	-0.593651	0.000011	-2.515929	-0.000001
6.524	-1.339329	195.447937	-11.551237	-0.167283	0	-0.593956	0.000002	-2.508502	-0.000001
6.525	-1.870143	195.976563	-11.524719	-0.166917	0	-0.593982	0.000008	-2.545498	-0.000001
6.526	-1.695056	195.608536	-11.773057	-0.167169	0	-0.593728	0.000012	-2.583438	-0.000002
6.527	-1.691293	195.086624	-11.593562	-0.167159	0	-0.592664	0.000002	-2.552402	-0.000003
6.528	-1.515078	196.499985	-11.751377	-0.167083	0	-0.592491	0.000003	-2.601413	-0.000003
6.529	-1.671654	195.791031	-11.389499	-0.167513	0	-0.59345	0.000001	-2.542765	0.000001
6.53	-1.822946	195.433395	-11.411683	-0.166982	0	-0.594036	0.000002	-2.513324	-0.000002
6.531	-1.511799	195.512665	-11.685049	-0.166664	0	-0.592652	0.000015	-2.53175	-0.000004
6.532	-1.579129	194.271225	-11.614069	-0.166484	0	-0.593363	0.000001	-2.544763	-0.000002
6.533	-1.603233	195.268768	-11.595803	-0.166768	0	-0.593568	0.000003	-2.458291	-0.000004
6.534	-1.628965	196.677383	-12.069667	-0.167088	0	-0.593341	0.00001	-2.539791	-0.000001
6.535	-1.471073	194.447861	-11.914623	-0.167126	0	-0.593313	0.000008	-2.546324	-0.000001
6.536	-1.42669	194.813568	-11.980474	-0.166867	0	-0.592672	0.000011	-2.508693	-0.000001
6.537	-1.62684	196.31749	-11.774511	-0.166794	0	-0.592763	0.000005	-2.443711	0.000001
6.538	-1.963836	195.070053	-11.724302	-0.167122	0	-0.593207	0.000003	-2.529751	-0.000001
6.539	-1.786698	194.902618	-11.775541	-0.167187	0	-0.593871	0.000002	-2.520985	0
6.54	-1.787526	195.791	-12.202889	-0.166948	0	-0.592937	0.000003	-2.404054	-0.000003
6.541	-1.627471	195.062698	-11.979877	-0.166734	0	-0.592744	0.00001	-2.427541	-0.000004
6.542	-1.675264	194.716507	-12.250866	-0.166906	0	-0.592895	0.000009	-2.510912	-0.000001
6.543	-1.451498	194.810776	-12.028002	-0.167641	0	-0.593021	0.000009	-2.503378	-0.000001
6.544	-1.717854	194	-11.931462	-0.166453	0	-0.593639	0.000008	-2.484588	-0.000005
6.545	-2.008348	195.605499	-11.905698	-0.166557	0	-0.592762	0.000011	-2.53973	-0.000001
6.546	-1.696669	195.436508	-12.022696	-0.166682	0	-0.593108	0.000007	-2.501844	-0.000002
6.547	-1.671407	194.896469	-11.953865	-0.166166	0	-0.59329	0.000014	-2.461353	-0.000004
6.548	-1.447454	195.24942	-12.004078	-0.166549	0	-0.592418	0.000013	-2.495393	-0.000002
6.549	-1.673576	196.234116	-12.092515	-0.16683	0	-0.592433	0.000008	-2.438076	-0.000002
6.55	-1.809424	195.884598	-12.046804	-0.167286	0	-0.592576	0.000006	-2.473909	-0.000004
6.551	-1.407028	195.609375	-12.2551	-0.167106	0	-0.592151	0.000012	-2.469886	-0.000002
6.552	-1.450235	195.072525	-12.118987	-0.167195	0	-0.592377	-0.000002	-2.490176	-0.000003
6.553	-1.609359	194.17482	-12.364807	-0.166738	0	-0.59261	0.000006	-2.436692	-0.000002
6.554	-1.632808	196.320313	-12.41121	-0.166883	0	-0.59239	0.000011	-2.458568	-0.000003
6.555	-1.560264	196.322266	-12.116161	-0.166464	0	-0.592607	0.000003	-2.521974	-0.000002
6.556	-1.74102	196.149139	-12.158854	-0.166603	0	-0.593058	0.000008	-2.500203	-0.000002
6.557	-1.652812	195.875671	-12.320451	-0.166849	0	-0.592014	0.00001	-2.512151	-0.000001
6.558	-1.535801	196.41362	-11.821029	-0.166883	0	-0.592218	0.000005	-2.533731	-0.000001
6.559	-1.381556	195.877151	-12.071769	-0.167065	0	-0.591961	0.00001	-2.548414	-0.000002
6.56	-1.223556	196.6875	-12.279438	-0.166285	0	-0.591818	0.00001	-2.547097	0
6.561	-1.086772	196.776596	-12.053079	-0.166814	0	-0.592163	0.000015	-2.528748	-0.000003
6.562	-1.542924	196.690781	-12.481511	-0.166932	0	-0.59231	0.000004	-2.510145	-0.000001
6.563	-1.740987	195.787262	-12.159328	-0.166983	0	-0.592088	0.000004	-2.525203	-0.000002
6.564	-1.835173	196.328125	-12.182113	-0.167375	0	-0.592682	0.000015	-2.483464	-0.000001
6.565	-1.495666	196.414993	-11.983349	-0.167507	0	-0.592361	0.000002	-2.493498	-0.000002
6.566	-1.490495	196.324936	-11.753232	-0.166681	0	-0.592532	0.000009	-2.542002	-0.000003
6.567	-1.466081	195.24411	-11.839822	-0.165923	0	-0.592555	0.000006	-2.520748	-0.000003
6.568	-1.314901	195.778763	-12.256027	-0.165989	0	-0.592051	0.000011	-2.523128	-0.000002
6.569	-1.155556	197.223618	-12.100242	-0.167321	0	-0.591582	0.000008	-2.544156	-0.000002
6.57	-1.472705	196.51091	-12.185971	-0.166622	0	-0.592628	0.000006	-2.493475	-0.000003
6.571	-1.444044	195.790405	-11.958439	-0.165931	0	-0.592661	0	-2.488586	-0.000002
6.572	-1.579354	195.42038	-11.728381	-0.166298	0	-0.592539	-0.000003	-2.503059	-0.000003
6.573	-1.58061	196.319077	-11.888585	-0.166425	0	-0.592787	0.000004	-2.561108	-0.000002
6.574	-1.515499	197.22438	-11.958237	-0.16667	0	-0.592124	0.000009	-2.612246	-0.000003
6.575	-1.313779	196.6875	-12.027213	-0.166984	0	-0.591653	0.000011	-2.539811	0
6.576	-1.379645	196.685593	-12.188053	-0.16636	0	-0.592196	0.000007	-2.506674	-0.000001
6.577	-1.647711	196.679688	-11.958315	-0.166641	0	-0.591813	0.000012	-2.631614	-0.000001
6.578	-1.784641	196.506256	-11.659592	-0.166955	0	-0.592304	0.000011	-2.629755	0
6.579	-1.581491	196.145844	-11.792356	-0.166714	0	-0.592695	0.000011	-2.57782	-0.000001
6.58	-1.562051	196.082703	-12.25621	-0.166008	0	-0.593298	0.000013	-2.569678	-0.000001
6.581	-1.466876	194.614975	-11.862301	-0.165938	0	-0.59264	0.000011	-2.542603	-0.000003
6.582	-1.400469	196.054169	-12.028822	-0.165789	0	-0.592688	0.000006	-2.610915	0
6.583	-1.441879	196.322205	-11.597789	-0.166482	0	-0.592553	0.00001	-2.600083	-0.000001
6.584	-1.686638	196.241119	-11.428945	-0.166982	0	-0.592803	0.00001	-2.549591	-0.000003
6.585	-1.85519	196.053787	-11.814866	-0.166206	0	-0.592491	0.000005	-2.568184	-0.000001
6.586	-1.417609	196.235352	-11.935015	-0.165881	0	-0.591841	0.000006	-2.634363	-0.000004
6.587	-1.779399	195.793335	-11.860385	-0.165651	0	-0.591916	0	-2.611192	-0.000003
6.588	-1.781523	195.242188	-11.858835	-0.165119	0	-0.592227	0.000001	-2.581119	-0.000003
6.589	-1.642553	195.502029	-11.774904	-0.165793	0	-0.592382	0.000003	-2.654892	0
6.59	-1.802811	196.149124	-11.672237	-0.165579	0	-0.592475	0.000001	-2.675457	-0.000001
6.591	-1.649238	195.609375	-12.117064	-0.165901	0	-0.591286	0.000003	-2.622821	-0.000003
6.592	-1.578126	195.436615	-11.838437	-0.165667	0	-0.591504	0.000001	-2.587808	-0.000003
6.593	-1.645009	194.975052	-12.022662	-0.16582	0	-0.591294	0.000011	-2.601853	-0.000001
6.594	-1.869762	194.983521	-11.884962	-0.165732	0	-0.591207	-0.000002	-2.654899	-0.000001
6.595	-1.870678	194.420624	-11.764894	-0.165533	0	-0.591385	-0.000003	-2.62929	0
6.596	-1.77522	195.152054	-11.933926	-0.165598	0	-0.591064	0.000008	-2.631596	-0.000003
6.597	-2.007923	194.460678	-11.670867	-0.165941	0	-0.591019	0.000009	-2.659079	-0.000001
6.598	-1.70771	193.349518	-11.81998	-0.164867	0	-0.591723	-0.000003	-2.585383	-0.000003
6.599	-1.779586	194.508682	-11.622402	-0.165124	0	-0.592023	0.000012	-2.601084	-0.000001
6.6	-1.580049	195.523758	-12.250896	-0.164915	0	-0.592327	0.00001	-2.543491	-0.000003
6.601	-1.599459	195.162613	-12.043201	-0.165159	0	-0.591372	0	-2.551864	-0.000001
6.602	-1.668311	194.711899	-12.000638	-0.165722	0	-0.590602	-0.000001	-2.601199	-0.000003
6.603	-1.774674	194.247589	-11.817272	-0.165802	0	-0.590528	0.000004	-2.725227	-0.000003
6.604	-2.030414	194.775223	-11.826603	-0.1655	0	-0.591132	0.000005	-2.572895	-0.000002
6.605	-1.738432	194.929459	-12.208118	-0.1655	0	-0.591437	0.00001	-2.614695	-0.000002
6.606	-1.752761	193.334488	-11.924954	-0.165527	0	-0.591572	0.000006	-2.606304	-0.000002
6.607	-2.029733	195.414169	-12.173109	-0.165389	0	-0.59208	0.000009	-2.515098	-0.000004
6.608	-2.15959	195.713791	-12.224626	-0.165706	0	-0.592108	0.000015	-2.611072	-0.000002
6.609	-2.484333	194.80571	-12.006562	-0.165457	0	-0.592022	0.000009	-2.59306	0
6.61	-2.145933	194.191925	-12.176564	-0.165394	0	-0.591754	0.000001	-2.554911	-0.000001
6.611	-1.939081	193.261414	-12.082417	-0.165413	0	-0.59087	0.000002	-2.578846	-0.000001
6.612	-1.876494	193.975876	-12.156909	-0.165198	0	-0.591045	0.000002	-2.519407	-0.000001
